# AST/ASF file generated using VICON BodyLanguage
# -----------------------------------------------
:version 1.10
:name VICON
:units
  mass 1.0
  length 0.45
  angle deg
:documentation
   .ast/.asf automatically generated from VICON data using
   VICON BodyBuilder and BodyLanguage model FoxedUp or BRILLIANT.MOD
:root
   order TX TY TZ RX RY RZ
   axis XYZ
   position 0 0 0  
   orientation 0 0 0 
:bonedata
  begin
     id 1 
     name lhipjoint
     direction 0.630305 -0.712092 0.309259 
     length 2.29033 
     axis 0 0 0  XYZ
  end
  begin
     id 2 
     name lfemur
     direction 0.34202 -0.939693 0  
     length 6.43538  
     axis 0 0 20  XYZ
    dof rx ry rz
    limits (-160.0 20.0)
           (-70.0 70.0)
           (-60.0 70.0)
  end
  begin
     id 3 
     name ltibia
     direction 0.34202 -0.939693 0   
     length 7.43097   
     axis 0 0 20   XYZ
    dof rx
    limits (-10.0 170.0)
  end
  begin
     id 4 
     name lfoot
     direction 0.0334653 -0.0919451 0.995202   
     length 1.78438   
     axis -90 7.62852e-016 20   XYZ
    dof rx rz
    limits (-45.0 90.0)
           (-70.0 20.0)
  end
  begin
     id 5 
     name ltoes
     direction 1.53535e-011 -4.21933e-011 1   
     length 0.90832   
     axis -90 7.62852e-016 20   XYZ
    dof rx
    limits (-90.0 20.0)
  end
  begin
     id 6 
     name rhipjoint
     direction -0.682059 -0.67077 0.291312   
     length 2.43143  
     axis 0 0 0  XYZ 
  end
  begin
     id 7 
     name rfemur
     direction -0.34202 -0.939693 0   
     length 6.63488   
     axis 0 0 -20   XYZ
    dof rx ry rz
    limits (-160.0 20.0)
           (-70.0 70.0)
           (-70.0 60.0)
  end
  begin
     id 8 
     name rtibia
     direction -0.34202 -0.939693 0   
     length 6.86532   
     axis 0 0 -20   XYZ
    dof rx
    limits (-10.0 170.0)
 end
 begin
     id 9 
     name rfoot
     direction -0.105199 -0.289033 0.951521   
     length 1.77126  
     axis -90 -7.62852e-016 -20   XYZ
    dof rx rz
    limits (-45.0 90.0)
           (-20.0 70.0)
  end
  begin
     id 10 
     name rtoes
     direction -1.53551e-011 -4.21978e-011 1   
     length 0.889273   
     axis -90 -7.62852e-016 -20   XYZ
    dof rx
    limits (-90.0 20.0)
  end
  begin
     id 11 
     name lowerback
     direction -0.0514305 0.998089 0.034245   
     length 2.02077   
     axis 0 0 0   XYZ
    dof rx ry rz
    limits (-20.0 45.0)
           (-30.0 30.0)
           (-30.0 30.0)
  end
  begin
     id 12 
     name upperback
     direction 0.0203189 0.999449 -0.0262315   
     length 2.01413   
     axis 0 0 0   XYZ
    dof rx ry rz
    limits (-20.0 45.0)
           (-30.0 30.0)
           (-30.0 30.0)
  end
  begin
     id 13 
     name thorax
     direction 0.0452736 0.998142 -0.0407729   
     length 2.02986   
     axis 0 0 0   XYZ
    dof rx ry rz
    limits (-20.0 45.0)
           (-30.0 30.0)
           (-30.0 30.0)
  end
  begin
     id 14 
     name lowerneck
     direction -0.0180464 0.999645 -0.0195774   
     length 1.59034   
     axis 0 0 0   XYZ
    dof rx ry rz
    limits (-20.0 45.0)
           (-30.0 30.0)
           (-30.0 30.0)
  end
  begin
     id 15 
     name upperneck
     direction 0.0732272 0.979935 -0.18538   
     length 1.57486   
     axis 0 0 0   XYZ
    dof rx ry rz
    limits (-20.0 45.0)
           (-30.0 30.0)
           (-30.0 30.0)
  end
  begin
     id 16
     name head
     direction 0.0252963 0.997909 -0.059472  
     length 1.60334  
     axis 0 0 0   XYZ
    dof rx ry rz
    limits (-20.0 45.0)
           (-30.0 30.0)
           (-30.0 30.0)
  end
  begin
     id 17 
     name lclavicle
     direction 0.943819 0.330449 0.00315172  
     length 3.50322  
     axis 0 0 0   XYZ
    dof ry rz
    limits (-20.0 10.0)
           (0.0 20.0)
  end
  begin
     id 18 
     name lhumerus
     direction 1 -4.48949e-011 2.22502e-028   
     length 4.63208   
     axis 180 -30 -90   XYZ
    dof rx ry rz
    limits (-60.0 90.0)
           (-90.0 90.0)
           (-90.0 90.0)
  end
  begin
     id 19
     name lradius
     direction 1 -4.48967e-011 -4.10197e-027   
     length 3.41924   
     axis 180 -30 -90   XYZ
    dof rx
    limits (-10.0 170.0)
  end
  begin
     id 20
     name lwrist
     direction 1 -4.48987e-011 -1.24264e-027   
     length 1.70962   
     axis 2.50585e-015 90 90   XYZ
    dof ry
    limits (-180.0 0.0)
 end
  begin
     id 21 
     name lhand
     direction 1 -4.48983e-011 -2.48528e-027   
     length 0.62537   
     axis 1.58582e-015 90 90   XYZ
    dof rx rz
    limits (-90.0 90.0)
           (-45.0 45.0)
  end
  begin
     id 22 
     name lfingers
     direction 1 -4.48896e-011 -4.97056e-027   
     length 0.50419   
     axis 3.17164e-015 90 90   XYZ
    dof rx
    limits (0.0 90.0)
  end
  begin
     id 23
     name lthumb
     direction 0.707107 -6.34803e-011 0.707107   
     length 0.723919   
     axis -90 45 2.85299e-015   XYZ
    dof rx rz
    limits (-45.0 45.0)
           (-45.0 45.0)
  end
  begin
     id 24 
     name rclavicle
     direction -0.964499 0.260664 -0.0423695   
     length 3.91997  
     axis 0 0 0   XYZ 
    dof ry rz
    limits (-10.0 20.0)
           (-20.0 0.0)
  end
  begin
     id 25 
     name rhumerus
     direction -1 -4.48957e-011 -1.98656e-027  
     length 4.4064   
     axis 180 30 90   XYZ
    dof rx ry rz
    limits (-90.0 60.0)
           (-90.0 90.0)
           (-90.0 90.0)
  end
  begin
     id 26 
     name rradius
     direction -1 -4.48968e-011 1.96972e-027   
     length 3.44675   
     axis 180 30 90   XYZ
    dof rx
    limits (-10.0 170.0)
  end
  begin
     id 27 
     name rwrist
     direction -1 -4.48974e-011 -1.24264e-027   
     length 1.72338   
     axis 2.50585e-015 -90 -90   XYZ
    dof ry
    limits (-180.0 0.0)
  end
  begin
     id 28
     name rhand
     direction -1 -4.48901e-011 -2.48528e-027   
     length 0.513674   
     axis 1.58582e-015 -90 -90   XYZ
    dof rx rz
    limits (-90.0 90.0)
           (-45.0 45.0)
  end
  begin
     id 29
     name rfingers
     direction -1 -4.48946e-011 -4.97056e-027   
     length 0.414137   
     axis 3.17164e-015 -90 -90   XYZ
    dof rx
    limits (0.0 90.0)
  end
  begin
     id 30
     name rthumb
     direction -0.707107 -6.34859e-011 0.707107   
     length 0.59462   
     axis -90 -45 -2.85299e-015   XYZ
    dof rx rz
    limits (-45.0 45.0)
           (-45.0 45.0)
  end
:hierarchy
  begin
    root lhipjoint rhipjoint lowerback
    lhipjoint lfemur
    lfemur ltibia
    ltibia lfoot
    lfoot ltoes
    rhipjoint rfemur
    rfemur rtibia
    rtibia rfoot
    rfoot rtoes
    lowerback upperback
    upperback thorax
    thorax lowerneck lclavicle rclavicle
    lowerneck upperneck
    upperneck head
    lclavicle lhumerus
    lhumerus lradius
    lradius lwrist
    lwrist lhand lthumb
    lhand lfingers
    rclavicle rhumerus
    rhumerus rradius
    rradius rwrist
    rwrist rhand rthumb
    rhand rfingers
  end

#!OML:ASF E:\inclinewalkrobotboard\Project 1\Capture day 1\Session 1\subject1.ASF
:FULLY-SPECIFIED
:DEGREES
16
root 9.97922 16.4543 6.22763 -146.379 -82.832 -204.376
lowerback -8.07301 0.331355 -8.1259
upperback -0.373025 1.1382 0.65404
thorax 3.97689 0.401902 5.39164
lowerneck -13.2697 -0.0316715 -4.62961
upperneck 34.2724 -1.96393 5.50425
head 13.9573 -1.16057 2.62463
rclavicle -8.69683e-015 -7.35503e-015
rhumerus -43.6371 -4.61164 -91.7307
rradius 98.4173
rwrist -0.899914
rhand -21.3325 -33.0168
rfingers 7.12502
rthumb 5.0533 -62.9365
lclavicle -8.69683e-015 -7.35503e-015
lhumerus -38.295 9.69262 83.2015
lradius 94.1881
lwrist 8.43989
lhand -54.8773 -36.0681
lfingers 7.12502
lthumb -27.2628 -8.01872
rfemur -3.4294 6.73139 4.11271
rtibia 5.67876
rfoot -12.9951 -16.192
rtoes -38.7071
lfemur -6.33957 -11.5876 -13.6882
ltibia 7.51838
lfoot -15.1894 10.8954
ltoes -68.1202
17
root 9.98633 16.4525 6.17493 -148.263 -82.8935 -202.208
lowerback -8.46451 0.411273 -7.69242
upperback -0.318522 1.24481 0.545203
thorax 4.24882 0.450347 5.05255
lowerneck -13.2452 -0.0128288 -4.47936
upperneck 34.6079 -2.04844 5.54659
head 14.1083 -1.18569 2.609
rclavicle 3.68994e-015 -1.88845e-014
rhumerus -43.574 -4.65895 -91.8785
rradius 98.2605
rwrist -0.695222
rhand -21.1804 -32.8483
rfingers 7.12502
rthumb 5.20019 -62.7645
lclavicle 3.68994e-015 -1.88845e-014
lhumerus -38.8147 10.357 82.8249
lradius 94.0573
lwrist 9.0296
lhand -55.1654 -35.9067
lfingers 7.12502
lthumb -27.5383 -7.90092
rfemur -2.6525 7.54095 4.84239
rtibia 3.64842
rfoot -12.9254 -17.3576
rtoes -37.2509
lfemur -6.74924 -11.6053 -13.1042
ltibia 7.76455
lfoot -15.2977 11.1535
ltoes -68.1649
18
root 9.99974 16.4465 6.1215 -147.913 -82.8409 -202.188
lowerback -8.81224 0.425901 -7.74189
upperback -0.314639 1.30069 0.481644
thorax 4.44081 0.468597 5.02821
lowerneck -13.1934 0.0294549 -4.46005
upperneck 34.7564 -2.03112 5.58461
head 14.1628 -1.17732 2.62678
rclavicle -6.03808e-015 -2.23633e-014
rhumerus -43.4898 -4.51998 -91.8806
rradius 98.1901
rwrist -0.761698
rhand -21.4964 -32.6142
rfingers 7.12502
rthumb 4.89507 -62.5377
lclavicle -6.03808e-015 -2.23633e-014
lhumerus -39.3091 11.0837 82.6508
lradius 94.0103
lwrist 9.82225
lhand -55.502 -35.6745
lfingers 7.12502
lthumb -27.8602 -7.72046
rfemur -2.19935 8.37419 5.09762
rtibia 2.00138
rfoot -13.0298 -18.1789
rtoes -35.4466
lfemur -7.35794 -11.7193 -12.8417
ltibia 8.11021
lfoot -15.4253 11.5045
ltoes -68.235
19
root 10.0272 16.4383 6.06687 -145.835 -82.6241 -203.905
lowerback -8.95162 0.405246 -8.18571
upperback -0.347371 1.32896 0.443071
thorax 4.4723 0.472315 5.24482
lowerneck -13.1491 0.0668756 -4.55162
upperneck 34.8119 -1.98519 5.65245
head 14.1759 -1.16347 2.67918
rclavicle -1.56543e-014 -1.69961e-014
rhumerus -43.3111 -4.29037 -91.7795
rradius 98.1282
rwrist -0.979442
rhand -21.6973 -32.6135
rfingers 7.12502
rthumb 4.70101 -62.5413
lclavicle -1.56543e-014 -1.69961e-014
lhumerus -39.6521 11.735 82.7033
lradius 93.8944
lwrist 10.4515
lhand -55.9788 -35.0964
lfingers 7.12502
lthumb -28.3159 -7.21711
rfemur -2.15994 8.78278 4.90756
rtibia 0.976122
rfoot -12.978 -18.5219
rtoes -34.9898
lfemur -8.05925 -11.8221 -12.863
ltibia 8.54378
lfoot -15.5122 11.8515
ltoes -68.3362
20
root 10.0598 16.432 6.01774 -145.55 -82.349 -204.082
lowerback -8.7627 0.494383 -8.37688
upperback -0.328212 1.45365 0.362096
thorax 4.36536 0.535015 5.27724
lowerneck -12.9703 0.060144 -4.41205
upperneck 34.6565 -2.01012 5.59645
head 14.0648 -1.16234 2.62233
rclavicle -4.63417e-015 2.77305e-014
rhumerus -43.0163 -4.32024 -91.7538
rradius 98.0182
rwrist -1.18193
rhand -21.5411 -32.9843
rfingers 7.12502
rthumb 4.85186 -62.9088
lclavicle -4.63417e-015 2.77305e-014
lhumerus -39.8351 12.1774 82.6486
lradius 93.6164
lwrist 10.7987
lhand -56.3246 -34.6677
lfingers 7.12502
lthumb -28.6464 -6.8437
rfemur -2.57107 8.88237 4.83754
rtibia 1.22059
rfoot -13.1286 -18.2607
rtoes -35.3226
lfemur -8.42072 -11.7439 -12.7561
ltibia 8.89819
lfoot -15.5371 12.0974
ltoes -68.4533
21
root 10.0908 16.4301 5.98335 -148.884 -82.2854 -200.863
lowerback -8.34038 0.646461 -7.85059
upperback -0.229209 1.57446 0.355694
thorax 4.22722 0.61054 4.97686
lowerneck -12.7227 0.0870883 -4.1911
upperneck 34.373 -1.97743 5.49267
head 13.8761 -1.12965 2.53731
rclavicle -1.68843e-014 2.16675e-014
rhumerus -42.6327 -4.40491 -91.8279
rradius 97.784
rwrist -1.19672
rhand -21.746 -33.3007
rfingers 7.12502
rthumb 4.65402 -63.2296
lclavicle -1.68843e-014 2.16675e-014
lhumerus -39.9634 12.6765 82.5178
lradius 93.3165
lwrist 10.8567
lhand -56.3563 -34.5023
lfingers 7.12502
lthumb -28.6767 -6.6834
rfemur -2.93273 8.45501 5.27691
rtibia 1.7768
rfoot -13.0869 -17.2773
rtoes -35.9695
lfemur -8.44394 -11.817 -12.1719
ltibia 9.16499
lfoot -15.6143 12.4974
ltoes -68.5669
22
root 10.1244 16.4351 5.95643 -152.772 -82.2603 -196.991
lowerback -7.99875 0.778906 -7.25249
upperback -0.131661 1.66971 0.451663
thorax 4.13702 0.671881 4.74255
lowerneck -12.54 0.126751 -4.11588
upperneck 34.0501 -1.87994 5.41491
head 13.6833 -1.08058 2.49914
rclavicle 2.12451e-015 -2.82274e-014
rhumerus -42.2155 -4.43423 -91.7776
rradius 97.4627
rwrist -0.892576
rhand -22.2353 -33.4172
rfingers 7.12502
rthumb 4.1816 -63.3559
lclavicle 2.12451e-015 -2.82274e-014
lhumerus -40.0138 13.113 82.5717
lradius 93.0057
lwrist 10.7996
lhand -56.3974 -34.4335
lfingers 7.12502
lthumb -28.7159 -6.62129
rfemur -3.52069 7.85623 5.82416
rtibia 2.53042
rfoot -12.9344 -16.224
rtoes -37.0408
lfemur -8.54858 -12.1316 -11.5038
ltibia 9.38823
lfoot -15.7247 13.1756
ltoes -68.6621
23
root 10.1569 16.4436 5.92834 -155.234 -82.228 -194.348
lowerback -7.87418 0.82126 -7.02156
upperback -0.0999719 1.69035 0.645275
thorax 4.09782 0.686818 4.81505
lowerneck -12.3846 0.1842 -4.21052
upperneck 33.7385 -1.71834 5.36726
head 13.5007 -1.02045 2.51358
rclavicle 1.86236e-014 2.32578e-014
rhumerus -41.8752 -4.37083 -91.4642
rradius 97.1825
rwrist -0.652202
rhand -22.3955 -33.4294
rfingers 7.12502
rthumb 4.02683 -63.3711
lclavicle 1.86236e-014 2.32578e-014
lhumerus -40.1136 13.5242 82.8547
lradius 92.7657
lwrist 10.8094
lhand -56.5649 -34.3392
lfingers 7.12502
lthumb -28.876 -6.55419
rfemur -4.22774 7.43073 6.25728
rtibia 3.17883
rfoot -12.7904 -15.5674
rtoes -37.322
lfemur -8.82588 -12.3446 -10.9727
ltibia 9.46974
lfoot -15.6944 13.772
ltoes -68.7362
24
root 10.1828 16.4508 5.89986 -155.447 -82.2675 -193.956
lowerback -7.82635 0.740579 -7.12651
upperback -0.0871683 1.58409 0.78613
thorax 4.09212 0.631043 5.01061
lowerneck -12.1876 0.268544 -4.30563
upperneck 33.3645 -1.54339 5.3997
head 13.2832 -0.943559 2.55973
rclavicle -5.82688e-015 2.60408e-014
rhumerus -41.6917 -4.33957 -91.2163
rradius 97.0638
rwrist -0.741948
rhand -22.1421 -33.0809
rfingers 7.12502
rthumb 4.27157 -63.0178
lclavicle -5.82688e-015 2.60408e-014
lhumerus -40.3308 13.915 83.1171
lradius 92.7657
lwrist 10.8922
lhand -56.6027 -33.8281
lfingers 7.12502
lthumb -28.9121 -6.04925
rfemur -4.72815 7.05739 6.4227
rtibia 3.59452
rfoot -12.7377 -15.2794
rtoes -37.2602
lfemur -9.02504 -12.6499 -10.7785
ltibia 9.33075
lfoot -15.543 14.3283
ltoes -68.747
